<svg width="14" height="14" viewBox="0 0 14 14" fill="none" xmlns="http://www.w3.org/2000/svg">
<path d="M1.43064 11.3466C1.48608 12.3107 2.24909 13.0766 3.21427 13.1101C5.4554 13.1877 8.17719 13.1059 9.58678 13.0509C10.1189 13.0301 10.5356 12.5917 10.5356 12.0592V4.52027C10.5356 3.98771 10.1189 3.54929 9.58678 3.52853C7.99663 3.4665 4.73657 3.3703 2.38046 3.50748C1.89841 3.53554 1.5194 3.91933 1.48463 4.40095C1.31431 6.76013 1.29631 9.01041 1.43064 11.3466Z" fill="#5861F9" stroke="black" stroke-width="1.5" stroke-linejoin="round"/>
<path d="M1.76862 3.78029C1.76839 3.78049 1.76886 3.78005 1.76862 3.78029C3.31328 1.4357 6.59413 0.412555 9.37871 0.937475L9.37872 3.52059C7.72556 3.45887 4.63804 3.37603 2.38046 3.50748C2.1417 3.52138 1.92752 3.62319 1.76862 3.78029Z" fill="white"/>
<path d="M1.76862 3.78029C1.76886 3.78005 1.76839 3.78049 1.76862 3.78029ZM1.76862 3.78029C3.31328 1.4357 6.59413 0.412555 9.37871 0.937475L9.37872 3.52059C7.72556 3.45887 4.63804 3.37603 2.38046 3.50748C2.1417 3.52138 1.92752 3.62319 1.76862 3.78029Z" stroke="black" stroke-width="1.5" stroke-linejoin="round"/>
<circle cx="5.93848" cy="7.3125" r="1.5" fill="white" stroke="black" stroke-width="1.5" stroke-linejoin="round"/>
<path d="M7.28418 10.7726L4.59326 10.7726" stroke="black" stroke-width="1.5" stroke-linecap="round" stroke-linejoin="round"/>
</svg>
