<svg width="14" height="14" viewBox="0 0 14 14" fill="none" xmlns="http://www.w3.org/2000/svg">
<path d="M2.2481 12.0367C2.282 12.5182 2.6607 12.9034 3.14169 12.9437C5.78943 13.1657 8.21057 13.1657 10.8583 12.9437C11.3393 12.9034 11.718 12.5182 11.7519 12.0367C11.9577 9.11339 11.9577 6.35152 11.7519 3.42818C11.718 2.94669 11.3394 2.56268 10.8603 2.50382C9.62298 2.35181 8.33015 2.15625 7 2.15625C5.66985 2.15625 4.37702 2.35181 3.13967 2.50382C2.66059 2.56268 2.28199 2.94669 2.2481 3.42818C2.0423 6.35152 2.0423 9.11338 2.2481 12.0367Z" fill="white"/>
<path d="M2.2481 12.0367C2.282 12.5182 2.6607 12.9034 3.14169 12.9437C5.78943 13.1657 8.21057 13.1657 10.8583 12.9437C11.3393 12.9034 11.718 12.5182 11.7519 12.0367C11.9577 9.11339 11.9577 6.35152 11.7519 3.42818C11.718 2.94669 11.3394 2.56268 10.8603 2.50382C9.62298 2.35181 8.33015 2.15625 7 2.15625C5.66985 2.15625 4.37702 2.35181 3.13967 2.50382C2.66059 2.56268 2.28199 2.94669 2.2481 3.42818C2.0423 6.35152 2.0423 9.11338 2.2481 12.0367Z" stroke="#0C0507" stroke-width="1.5"/>
<path d="M5.09375 6.51562H8.90625" stroke="#0C0507" stroke-width="1.5" stroke-linecap="round"/>
<path d="M5.09375 9.42188H7.3944" stroke="#0C0507" stroke-width="1.5" stroke-linecap="round"/>
<rect x="4.17188" y="0.75" width="5.65625" height="2.96875" rx="1.48438" fill="#5861F9" stroke="#0C0507" stroke-width="1.5" stroke-linejoin="round"/>
</svg>
