<svg width="20" height="20" viewBox="0 0 20 20" fill="none" xmlns="http://www.w3.org/2000/svg">
<path d="M9.99981 18.7018C14.888 18.7018 18.8507 14.7391 18.8507 9.85088C18.8507 4.96267 14.888 1 9.99981 1C5.1116 1 1.14893 4.96267 1.14893 9.85088C1.14893 14.7391 5.1116 18.7018 9.99981 18.7018Z" fill="#5861F9" stroke="#0C0507" stroke-width="1.5" stroke-linecap="round" stroke-linejoin="round"/>
<path d="M4.21263 13.2551C4.84462 13.2551 5.45073 13.004 5.89761 12.5571C6.3445 12.1102 6.59556 11.5041 6.59556 10.8721V8.82962C6.59556 8.19763 6.84662 7.59152 7.2935 7.14464C7.74039 6.69775 8.34649 6.44669 8.97849 6.44669C9.61048 6.44669 10.2166 6.19563 10.6635 5.74875C11.1104 5.30186 11.3614 4.69575 11.3614 4.06376V1.10409C10.9176 1.03556 10.4628 1 9.99981 1C5.1116 1 1.14893 4.96267 1.14893 9.85088C1.14893 11.0572 1.39025 12.2071 1.82726 13.2551H4.21263Z" fill="white" stroke="#0C0507" stroke-width="1.5" stroke-linecap="round" stroke-linejoin="round"/>
<path d="M18.8497 9.71426C18.1681 9.3608 17.4124 9.17427 16.6446 9.17004H13.7443C13.1123 9.17004 12.5062 9.4211 12.0593 9.86799C11.6124 10.3149 11.3613 10.921 11.3613 11.553C11.3613 12.185 11.6124 12.7911 12.0593 13.238C12.5062 13.6848 13.1123 13.9359 13.7443 13.9359C14.1957 13.9359 14.6286 14.1152 14.9478 14.4344C15.267 14.7536 15.4464 15.1866 15.4464 15.638V16.8227H15.4532C17.5087 15.2126 18.8342 12.7131 18.8505 9.90352V9.79824C18.8504 9.77021 18.8501 9.74222 18.8497 9.71426Z" fill="white" stroke="#0C0507" stroke-width="1.5" stroke-linecap="round" stroke-linejoin="round"/>
</svg>
