<svg width="48" height="48" viewBox="0 0 48 48" fill="none" xmlns="http://www.w3.org/2000/svg">
<path d="M17.1722 28.9774C17.28 29.9373 18.0456 30.7024 19.0051 30.8137C20.3176 30.9658 21.6777 31.1258 23.0714 31.1258C24.465 31.1258 25.8251 30.9658 27.1376 30.8137C28.0971 30.7024 28.8627 29.9373 28.9705 28.9774C29.1172 27.6707 29.2677 26.3168 29.2677 24.9295C29.2677 23.5421 29.1172 22.1882 28.9705 20.8815C28.8627 19.9216 28.0971 19.1565 27.1376 19.0453C25.8251 18.8931 24.465 18.7331 23.0714 18.7331C21.6777 18.7331 20.3176 18.8931 19.0051 19.0453C18.0456 19.1565 17.28 19.9216 17.1722 20.8815C17.0255 22.1882 16.875 23.5421 16.875 24.9295C16.875 26.3168 17.0255 27.6707 17.1722 28.9774Z" fill="white"/>
<path d="M22.1599 18.7544C21.0838 18.8029 20.03 18.9265 19.0051 19.0453C18.0456 19.1565 17.28 19.9216 17.1722 20.8815C17.0255 22.1882 16.875 23.5421 16.875 24.9295C16.875 26.3168 17.0255 27.6707 17.1722 28.9774C17.28 29.9373 18.0456 30.7024 19.0051 30.8137C20.3176 30.9658 21.6777 31.1258 23.0714 31.1258C24.465 31.1258 25.8251 30.9658 27.1376 30.8137C28.0971 30.7024 28.8627 29.9373 28.9705 28.9774C29.0785 28.0153 29.1886 27.0277 29.2391 26.0199" stroke="black" stroke-width="1.5" stroke-linecap="round"/>
<path d="M27.5524 17.4888L23.341 22.2672L22.7641 24.9808C22.6713 25.4174 23.1264 25.8305 23.5526 25.6965L26.253 24.8476L30.6028 20.2705C31.3252 19.5104 31.1992 18.2389 30.3247 17.4654C29.4707 16.71 28.2295 16.7205 27.5524 17.4888Z" fill="white"/>
<path d="M27.5524 17.4888L23.341 22.2672L22.7641 24.9808C22.6713 25.4174 23.1264 25.8305 23.5526 25.6965L26.253 24.8476L30.6028 20.2705C31.3252 19.5104 31.1992 18.2389 30.3247 17.4654C29.4707 16.71 28.2295 16.7205 27.5524 17.4888Z" stroke="black" stroke-width="1.5" stroke-linecap="round" stroke-linejoin="round"/>
<rect x="0.5" y="0.5" width="47" height="47" stroke="#051619"/>
</svg>
